<svg width="128" height="118" viewBox="0 0 128 118" fill="none" xmlns="http://www.w3.org/2000/svg">
<path d="M44.5869 52.6978C40.2759 52.6978 36.7701 49.1963 36.7701 44.8907C36.7701 40.5851 40.2759 37.0836 44.5869 37.0836C48.8979 37.0836 52.4037 40.5851 52.4037 44.8907C52.4037 49.1963 48.8979 52.6978 44.5869 52.6978ZM44.5869 39.0354C41.3546 39.0354 38.7243 41.6625 38.7243 44.8907C38.7243 48.119 41.3546 50.746 44.5869 50.746C47.8191 50.746 50.4495 48.119 50.4495 44.8907C50.4495 41.6625 47.8191 39.0354 44.5869 39.0354Z" fill="#FF5B5A"/>
<path d="M33.8408 52.6978C33.7724 52.6978 33.704 52.692 33.6356 52.6764L27.316 51.3238L6.27681 46.821C5.74722 46.7078 5.41305 46.1887 5.52444 45.6617C5.63974 45.1347 6.16738 44.799 6.68524 44.9122L28.0817 49.4915L34.044 50.7675C34.5736 50.8807 34.9078 51.3999 34.7964 51.9269C34.6948 52.3836 34.2902 52.6978 33.8408 52.6978Z" fill="#FF5B5A"/>
<path d="M31.0228 57.2923C31.0149 57.2923 31.0071 57.2923 30.9993 57.2923L25.1998 57.1514L2.54814 56.6014C2.00878 56.5877 1.58081 56.1407 1.59449 55.6021C1.60817 55.0634 2.05568 54.6906 2.59504 54.6496L25.8606 55.2146L31.0462 55.3405C31.5856 55.3542 32.0135 55.8011 31.9999 56.3398C31.9862 56.8707 31.5504 57.2923 31.0228 57.2923Z" fill="#FF5B5A"/>
<path d="M2.5697 66.3602C2.09288 66.3602 1.67467 66.0089 1.60432 65.5229C1.52811 64.9901 1.89941 64.4944 2.43486 64.4182L23.8558 61.3619L29.7936 60.5147C30.3174 60.4386 30.8215 60.8094 30.8978 61.3422C30.974 61.8751 30.6027 62.3708 30.0672 62.4469L23.2263 63.423L2.70845 66.3505C2.6635 66.3583 2.61465 66.3602 2.5697 66.3602Z" fill="#FF5B5A"/>
<path d="M94.417 52.6978C93.9675 52.6978 93.5611 52.3836 93.4634 51.9269C93.35 51.3999 93.6861 50.8807 94.2157 50.7675L100.171 49.4929L121.575 44.9122C122.098 44.799 122.62 45.1347 122.735 45.6617C122.849 46.1887 122.513 46.7078 121.983 46.821L100.937 51.3253L94.6242 52.6764C94.5538 52.692 94.4854 52.6978 94.417 52.6978Z" fill="#FF5B5A"/>
<path d="M97.235 57.2923C96.7054 57.2923 96.2716 56.8707 96.2579 56.3398C96.2442 55.8011 96.6722 55.3542 97.2115 55.3405L102.392 55.2147L125.663 54.6496C126.216 54.7042 126.65 55.0634 126.663 55.6021C126.677 56.1407 126.249 56.5877 125.71 56.6014L103.053 57.1516L97.2584 57.2923C97.2506 57.2923 97.2428 57.2923 97.235 57.2923Z" fill="#FF5B5A"/>
<path d="M125.688 66.3602C125.643 66.3602 125.594 66.3582 125.549 66.3504L105.026 63.4222L98.1906 62.4469C97.6571 62.3708 97.2838 61.877 97.36 61.3422C97.4382 60.8094 97.9443 60.4366 98.4641 60.5146L104.397 61.3611L125.823 64.4182C126.356 64.4943 126.73 64.9881 126.653 65.5229C126.583 66.0089 126.165 66.3602 125.688 66.3602Z" fill="#FF5B5A"/>
<path d="M69.9915 47.1431C69.9915 48.3863 67.367 50.746 64.1289 50.746C60.8908 50.746 58.2663 48.3863 58.2663 47.1431C58.2663 45.8998 60.8908 44.8907 64.1289 44.8907C67.367 44.8907 69.9915 45.8998 69.9915 47.1431Z" fill="#FF5B5A"/>
<path d="M44.5869 47.8184C46.2058 47.8184 47.5182 46.5076 47.5182 44.8907C47.5182 43.2738 46.2058 41.9631 44.5869 41.9631C42.968 41.9631 41.6556 43.2738 41.6556 44.8907C41.6556 46.5076 42.968 47.8184 44.5869 47.8184Z" fill="#FF5B5A"/>
<path d="M83.6709 52.6978C79.3599 52.6978 75.8541 49.1963 75.8541 44.8907C75.8541 40.5851 79.3599 37.0836 83.6709 37.0836C87.9818 37.0836 91.4877 40.5851 91.4877 44.8907C91.4877 49.1963 87.9818 52.6978 83.6709 52.6978ZM83.6709 39.0354C80.4386 39.0354 77.8083 41.6625 77.8083 44.8907C77.8083 48.119 80.4386 50.746 83.6709 50.746C86.9031 50.746 89.5335 48.119 89.5335 44.8907C89.5335 41.6625 86.9031 39.0354 83.6709 39.0354Z" fill="#FF5B5A"/>
<path d="M83.6709 47.8184C85.2898 47.8184 86.6022 46.5076 86.6022 44.8907C86.6022 43.2738 85.2898 41.9631 83.6709 41.9631C82.0519 41.9631 80.7396 43.2738 80.7396 44.8907C80.7396 46.5076 82.0519 47.8184 83.6709 47.8184Z" fill="#FF5B5A"/>
<path d="M71.4864 81.262C71.4864 82.1371 70.784 81.6918 69.6278 80.9589C68.28 80.1046 66.3157 78.8594 64.1288 78.8594C61.942 78.8594 59.9777 80.1046 58.6299 80.9589C57.4737 81.6918 56.7713 82.1371 56.7713 81.262C56.7713 79.3669 60.0661 74.3976 64.1288 74.3976C68.1916 74.3976 71.4864 79.3669 71.4864 81.262Z" fill="#FF5B5A"/>
<path d="M61.69 96.0565C61.7523 96.9191 61.0283 96.5303 59.8371 95.8904C58.449 95.1449 56.4265 94.0585 54.2738 94.214C52.119 94.3695 50.2729 95.7364 49.0067 96.6739C47.9212 97.4777 47.2618 97.9658 47.1996 97.1046C47.0648 95.2367 49.9531 90.1094 53.9553 89.8205C57.9555 89.5297 61.5551 94.1886 61.69 96.0565Z" fill="#FF5B5A"/>
<path d="M66.5677 96.0565C66.5054 96.9191 67.2293 96.5303 68.4206 95.8904C69.8087 95.1449 71.8312 94.0585 73.9839 94.214C76.1387 94.3695 77.9848 95.7364 79.251 96.6739C80.3365 97.4777 80.9958 97.9658 81.0581 97.1046C81.1929 95.2367 78.3046 90.1094 74.3024 89.8205C70.3022 89.5297 66.7026 94.1886 66.5677 96.0565Z" fill="#FF5B5A"/>
<path d="M42.1481 98.7948C42.4247 99.6121 41.5656 99.3808 40.1844 99.009C38.5313 98.564 36.1305 97.9177 34.0343 98.6269C32.0217 99.3078 30.5165 100.979 29.4515 102.162C28.4804 103.24 27.8753 103.912 27.5854 103.055C26.9776 101.26 29.4048 95.5978 33.2526 94.2959C37.1004 92.9941 41.5403 96.9991 42.1481 98.7948Z" fill="#FF5B5A"/>
<path d="M86.1097 98.7948C85.8331 99.6121 86.6922 99.3808 88.0734 99.009C89.7265 98.564 92.1273 97.9177 94.2236 98.6269C96.2361 99.3078 97.7413 100.979 98.8063 102.162C99.7775 103.24 100.383 103.912 100.672 103.055C101.28 101.26 98.8531 95.5978 95.0052 94.2959C91.1574 92.9941 86.7175 96.9991 86.1097 98.7948Z" fill="#FF5B5A"/>
<path d="M35.5155 87.2442C35.7621 88.1935 36.4477 87.5268 37.5348 86.4696C38.6961 85.3402 40.3155 83.7654 42.3474 83.2391C44.3518 82.72 46.3704 83.2154 47.8009 83.5664C49.1778 83.9043 50.0098 84.1085 49.7596 83.1454C49.2496 81.182 46.1502 77.3214 42.2164 78.3402C38.2826 79.359 35.0054 85.2807 35.5155 87.2442Z" fill="#FF5B5A"/>
<path d="M92.7423 87.2442C92.4957 88.1935 91.8101 87.5268 90.723 86.4696C89.5617 85.3402 87.9422 83.7654 85.9104 83.2391C83.906 82.72 81.8873 83.2154 80.4569 83.5664C79.0799 83.9043 78.248 84.1085 78.4981 83.1454C79.0082 81.182 82.1075 77.3214 86.0413 78.3402C89.9751 79.359 93.2523 85.2807 92.7423 87.2442Z" fill="#FF5B5A"/>
<path fill-rule="evenodd" clip-rule="evenodd" d="M106.979 69.1005C106.754 68.8741 106.588 68.597 106.494 68.2905L105.724 65.7376C105.491 64.9632 105.259 64.191 105.026 63.4222L98.1906 62.4469C97.6571 62.3708 97.2838 61.877 97.36 61.3422C97.4382 60.8094 97.9443 60.4366 98.4641 60.5146L104.397 61.3611C103.958 59.9392 103.513 58.5333 103.053 57.1516L97.2584 57.2923H97.235C96.7054 57.2923 96.2716 56.8707 96.2579 56.3398C96.2442 55.8011 96.6722 55.3542 97.2115 55.3405L102.392 55.2147C101.927 53.889 101.445 52.59 100.937 51.3253L94.6242 52.6764C94.5538 52.692 94.4854 52.6978 94.417 52.6978C93.9675 52.6978 93.5611 52.3836 93.4634 51.9269C93.35 51.3999 93.6861 50.8807 94.2157 50.7675L100.171 49.4929C96.6228 41.341 91.7747 34.8598 83.3347 32.2647C82.3772 31.9719 81.7987 31.0039 81.9902 30.0221L82.7192 26.3294C82.8227 25.8063 83.1354 25.3476 83.5849 25.0627C86.8386 22.9879 87.5167 18.0675 87.6301 15.3194C87.8685 9.52459 86.227 4.9106 85.3671 3.92105C84.5502 4.19235 81.7049 6.18706 79.1156 10.2643C77.3393 13.0612 74.6561 18.5574 76.6592 23.9443C76.8253 24.3912 76.8214 24.8811 76.6514 25.3261L75.4398 28.4685C75.1173 29.3058 74.2692 29.8074 73.3742 29.704C69.9504 29.2765 66.7221 29.2765 64.1289 29.2765C61.5357 29.2765 58.3073 29.2765 54.8816 29.7001C53.9905 29.8055 53.1385 29.3 52.816 28.4646L51.6044 25.3222C51.4344 24.8772 51.4305 24.3873 51.5966 23.9404C53.5997 18.5535 50.9165 13.0573 49.1402 10.2604C46.6251 6.29831 43.8658 4.30165 42.8555 3.95619C41.9878 5.01795 40.3873 9.59291 40.6238 15.3155C40.7391 18.0636 41.4152 22.984 44.669 25.0588C45.1184 25.3437 45.4331 25.8024 45.5347 26.3255L46.2636 30.0182C46.4571 30.998 45.8786 31.968 44.9191 32.2608C36.4784 34.8573 31.6303 41.3391 28.0817 49.4915L34.044 50.7675C34.5736 50.8807 34.9078 51.3999 34.7964 51.9269C34.6948 52.3836 34.2902 52.6978 33.8408 52.6978C33.7724 52.6978 33.704 52.692 33.6356 52.6764L27.316 51.3238C26.8078 52.589 26.3253 53.8884 25.8606 55.2146L31.0462 55.3405C31.5856 55.3542 32.0135 55.8011 31.9999 56.3398C31.9862 56.8707 31.5504 57.2923 31.0228 57.2923H30.9993L25.1998 57.1514C24.7399 58.5335 24.2947 59.9397 23.8558 61.3619L29.7936 60.5147C30.3174 60.4386 30.8215 60.8094 30.8978 61.3422C30.974 61.8751 30.6027 62.3708 30.0672 62.4469L23.2263 63.423C22.9939 64.1902 22.7622 64.9609 22.5299 65.7337L21.7599 68.2866C21.6661 68.593 21.5 68.8702 21.2753 69.0966C17.6504 72.7408 6.8664 85.7277 4.16676 113.203H15.2739C15.2739 83.5612 34.4505 64.4084 64.1289 64.4084C93.8073 64.4084 112.984 83.5612 112.984 113.203H124.091C121.391 85.7277 110.607 72.7413 106.979 69.1005ZM36.7701 44.8907C36.7701 49.1963 40.2759 52.6978 44.5869 52.6978C48.8979 52.6978 52.4037 49.1963 52.4037 44.8907C52.4037 40.5851 48.8979 37.0836 44.5869 37.0836C40.2759 37.0836 36.7701 40.5851 36.7701 44.8907ZM64.1289 50.746C67.367 50.746 69.9915 48.3863 69.9915 47.1431C69.9915 45.8998 67.367 44.8907 64.1289 44.8907C60.8908 44.8907 58.2663 45.8998 58.2663 47.1431C58.2663 48.3863 60.8908 50.746 64.1289 50.746ZM75.8541 44.8907C75.8541 49.1963 79.3599 52.6978 83.6709 52.6978C87.9818 52.6978 91.4877 49.1963 91.4877 44.8907C91.4877 40.5851 87.9818 37.0836 83.6709 37.0836C79.3599 37.0836 75.8541 40.5851 75.8541 44.8907Z" fill="#FCFCFC"/>
<path fill-rule="evenodd" clip-rule="evenodd" d="M0 113.203H2.20712H4.16676C6.8664 85.7277 17.6504 72.7408 21.2753 69.0966C21.5 68.8702 21.6661 68.593 21.7599 68.2866L22.5299 65.7337C22.7622 64.9609 22.9939 64.1902 23.2263 63.423L30.0672 62.4469C30.6027 62.3708 30.974 61.8751 30.8978 61.3422C30.8215 60.8094 30.3174 60.4386 29.7936 60.5147L23.8558 61.3619C24.2947 59.9397 24.7399 58.5335 25.1998 57.1514L30.9993 57.2923H31.0228C31.5504 57.2923 31.9862 56.8707 31.9999 56.3398C32.0135 55.8011 31.5856 55.3542 31.0462 55.3405L25.8606 55.2146C26.3253 53.8884 26.8078 52.589 27.316 51.3238L33.6356 52.6764C33.704 52.692 33.7724 52.6978 33.8408 52.6978C34.2902 52.6978 34.6948 52.3836 34.7964 51.9269C34.9078 51.3999 34.5736 50.8807 34.044 50.7675L28.0817 49.4915C31.6303 41.3391 36.4784 34.8573 44.9191 32.2608C45.8786 31.968 46.4571 30.998 46.2636 30.0182L45.5347 26.3255C45.4331 25.8024 45.1184 25.3437 44.669 25.0588C41.4152 22.984 40.7391 18.0636 40.6238 15.3155C40.3873 9.59291 41.9878 5.01795 42.8555 3.95619C43.8658 4.30165 46.6251 6.29831 49.1402 10.2604C50.9165 13.0573 53.5997 18.5535 51.5966 23.9404C51.4305 24.3873 51.4344 24.8772 51.6044 25.3222L52.816 28.4646C53.1385 29.3 53.9905 29.8055 54.8816 29.7001C58.3073 29.2765 61.5357 29.2765 64.1289 29.2765C66.7221 29.2765 69.9504 29.2765 73.3742 29.704C74.2692 29.8074 75.1173 29.3058 75.4398 28.4685L76.6514 25.3261C76.8214 24.8811 76.8253 24.3912 76.6592 23.9443C74.6561 18.5574 77.3393 13.0612 79.1156 10.2643C81.7049 6.18706 84.5502 4.19235 85.3671 3.92105C86.227 4.9106 87.8685 9.52459 87.6301 15.3194C87.5167 18.0675 86.8386 22.9879 83.5849 25.0627C83.1354 25.3476 82.8227 25.8063 82.7192 26.3294L81.9902 30.0221C81.7987 31.0039 82.3772 31.9719 83.3347 32.2647C91.7747 34.8598 96.6228 41.341 100.171 49.4929L94.2157 50.7675C93.6861 50.8807 93.35 51.3999 93.4634 51.9269C93.5611 52.3836 93.9675 52.6978 94.417 52.6978C94.4854 52.6978 94.5538 52.692 94.6242 52.6764L100.937 51.3253C101.445 52.59 101.927 53.889 102.392 55.2147L97.2115 55.3405C96.6722 55.3542 96.2442 55.8011 96.2579 56.3398C96.2716 56.8707 96.7054 57.2923 97.235 57.2923H97.2584L103.053 57.1516C103.513 58.5333 103.958 59.9392 104.397 61.3611L98.4641 60.5146C97.9443 60.4366 97.4382 60.8094 97.36 61.3422C97.2838 61.877 97.6571 62.3708 98.1906 62.4469L105.026 63.4222C105.259 64.191 105.491 64.9632 105.724 65.7376L106.494 68.2905C106.588 68.597 106.754 68.8741 106.979 69.1005C110.607 72.7413 121.391 85.7277 124.091 113.203H126.051L128 113.203C125.298 84.9858 114.283 71.044 110.096 66.7018L109.466 64.6134C105.011 49.7955 100.407 34.4878 86.1566 29.1048L86.4028 27.8498C91.6772 23.7979 92.2302 14.9954 91.0421 8.47259C90.5164 5.59763 89.2012 0.681111 86.2934 0.0702064C83.3152 -0.560216 79.6882 3.21842 78.2636 4.86962C74.0601 9.74319 70.4917 17.402 72.7508 24.5806L72.3326 25.6599C69.2606 25.373 66.4505 25.373 64.1289 25.373C61.8073 25.373 58.9971 25.373 55.9251 25.6599L55.507 24.5806C57.768 17.402 54.1976 9.74319 49.9942 4.86962C48.5695 3.22037 44.9367 -0.556313 41.9644 0.0702064C39.0546 0.681111 37.7413 5.59763 37.2157 8.47259C36.0275 14.9954 36.5805 23.7979 41.8549 27.8498L42.1012 29.1048C27.8511 34.4878 23.247 49.7955 18.7915 64.6134L18.1622 66.7018C13.9752 71.0457 2.70195 84.9862 0 113.203ZM16.251 113.203H15.2739C15.2739 83.5612 34.4505 64.4084 64.1289 64.4084C93.8073 64.4084 112.984 83.5612 112.984 113.203H112.007H111.03C111.03 84.7459 92.6191 66.3602 64.1289 66.3602C35.6386 66.3602 17.2281 84.7459 17.2281 113.203H16.251ZM36.7701 44.8907C36.7701 49.1963 40.2759 52.6978 44.5869 52.6978C48.8979 52.6978 52.4037 49.1963 52.4037 44.8907C52.4037 40.5851 48.8979 37.0836 44.5869 37.0836C40.2759 37.0836 36.7701 40.5851 36.7701 44.8907ZM64.1289 50.746C67.367 50.746 69.9915 48.3863 69.9915 47.1431C69.9915 45.8998 67.367 44.8907 64.1289 44.8907C60.8908 44.8907 58.2663 45.8998 58.2663 47.1431C58.2663 48.3863 60.8908 50.746 64.1289 50.746ZM75.8541 44.8907C75.8541 49.1963 79.3599 52.6978 83.6709 52.6978C87.9818 52.6978 91.4877 49.1963 91.4877 44.8907C91.4877 40.5851 87.9818 37.0836 83.6709 37.0836C79.3599 37.0836 75.8541 40.5851 75.8541 44.8907ZM69.6278 80.9589C68.28 80.1046 66.3157 78.8594 64.1288 78.8594C61.942 78.8594 59.9777 80.1046 58.6299 80.9589C57.4737 81.6918 56.7713 82.1371 56.7713 81.262C56.7713 79.3669 60.0661 74.3976 64.1288 74.3976C68.1916 74.3976 71.4864 79.3669 71.4864 81.262C71.4864 82.1371 70.784 81.6918 69.6278 80.9589ZM59.8371 95.8904C58.449 95.1449 56.4265 94.0585 54.2738 94.214C52.119 94.3695 50.2729 95.7364 49.0067 96.6739C47.9212 97.4777 47.2618 97.9658 47.1996 97.1046C47.0648 95.2367 49.9531 90.1094 53.9553 89.8205C57.9555 89.5297 61.5551 94.1886 61.69 96.0565C61.7523 96.9191 61.0283 96.5303 59.8371 95.8904ZM68.4206 95.8904C69.8087 95.1449 71.8312 94.0585 73.9839 94.214C76.1387 94.3695 77.9848 95.7364 79.251 96.6739C80.3365 97.4777 80.9958 97.9658 81.0581 97.1046C81.1929 95.2367 78.3046 90.1094 74.3024 89.8205C70.3022 89.5297 66.7026 94.1886 66.5677 96.0565C66.5054 96.9191 67.2293 96.5303 68.4206 95.8904ZM40.1844 99.009C38.5313 98.564 36.1305 97.9177 34.0343 98.6269C32.0217 99.3078 30.5165 100.979 29.4515 102.162C28.4804 103.24 27.8753 103.912 27.5854 103.055C26.9776 101.26 29.4048 95.5978 33.2526 94.2959C37.1004 92.9941 41.5403 96.9991 42.1481 98.7948C42.4247 99.6121 41.5656 99.3808 40.1844 99.009ZM88.0734 99.009C89.7265 98.564 92.1273 97.9177 94.2236 98.6269C96.2361 99.3078 97.7413 100.979 98.8063 102.162C99.7775 103.24 100.383 103.912 100.672 103.055C101.28 101.26 98.8531 95.5978 95.0052 94.2959C91.1574 92.9941 86.7175 96.9991 86.1097 98.7948C85.8331 99.6121 86.6922 99.3808 88.0734 99.009ZM37.5348 86.4696C38.6961 85.3402 40.3155 83.7654 42.3474 83.2391C44.3518 82.72 46.3704 83.2154 47.8009 83.5664C49.1778 83.9043 50.0098 84.1085 49.7596 83.1454C49.2496 81.182 46.1502 77.3214 42.2164 78.3402C38.2826 79.359 35.0054 85.2807 35.5155 87.2442C35.7621 88.1935 36.4477 87.5268 37.5348 86.4696ZM90.723 86.4696C89.5617 85.3402 87.9422 83.7654 85.9104 83.2391C83.906 82.72 81.8873 83.2154 80.4569 83.5664C79.0799 83.9043 78.248 84.1085 78.4981 83.1454C79.0082 81.182 82.1075 77.3214 86.0413 78.3402C89.9751 79.359 93.2523 85.2807 92.7423 87.2442C92.4957 88.1935 91.8101 87.5268 90.723 86.4696ZM83.6709 39.0354C80.4386 39.0354 77.8083 41.6625 77.8083 44.8907C77.8083 48.119 80.4386 50.746 83.6709 50.746C86.9031 50.746 89.5335 48.119 89.5335 44.8907C89.5335 41.6625 86.9031 39.0354 83.6709 39.0354ZM83.6709 47.8184C85.2898 47.8184 86.6022 46.5076 86.6022 44.8907C86.6022 43.2738 85.2898 41.9631 83.6709 41.9631C82.0519 41.9631 80.7396 43.2738 80.7396 44.8907C80.7396 46.5076 82.0519 47.8184 83.6709 47.8184ZM38.7243 44.8907C38.7243 41.6625 41.3546 39.0354 44.5869 39.0354C47.8191 39.0354 50.4495 41.6625 50.4495 44.8907C50.4495 48.119 47.8191 50.746 44.5869 50.746C41.3546 50.746 38.7243 48.119 38.7243 44.8907ZM47.5182 44.8907C47.5182 46.5076 46.2058 47.8184 44.5869 47.8184C42.968 47.8184 41.6556 46.5076 41.6556 44.8907C41.6556 43.2738 42.968 41.9631 44.5869 41.9631C46.2058 41.9631 47.5182 43.2738 47.5182 44.8907Z" fill="#FF5B5A"/>
<path fill-rule="evenodd" clip-rule="evenodd" d="M83.6709 39.0354C80.4386 39.0354 77.8083 41.6625 77.8083 44.8907C77.8083 48.119 80.4386 50.746 83.6709 50.746C86.9031 50.746 89.5335 48.119 89.5335 44.8907C89.5335 41.6625 86.9031 39.0354 83.6709 39.0354ZM83.6709 47.8184C85.2898 47.8184 86.6022 46.5076 86.6022 44.8907C86.6022 43.2738 85.2898 41.9631 83.6709 41.9631C82.0519 41.9631 80.7396 43.2738 80.7396 44.8907C80.7396 46.5076 82.0519 47.8184 83.6709 47.8184Z" fill="#FCFCFC"/>
<path fill-rule="evenodd" clip-rule="evenodd" d="M44.5869 39.0354C41.3546 39.0354 38.7243 41.6625 38.7243 44.8907C38.7243 48.119 41.3546 50.746 44.5869 50.746C47.8191 50.746 50.4495 48.119 50.4495 44.8907C50.4495 41.6625 47.8191 39.0354 44.5869 39.0354ZM44.5869 47.8184C46.2058 47.8184 47.5182 46.5076 47.5182 44.8907C47.5182 43.2738 46.2058 41.9631 44.5869 41.9631C42.968 41.9631 41.6556 43.2738 41.6556 44.8907C41.6556 46.5076 42.968 47.8184 44.5869 47.8184Z" fill="#FCFCFC"/>
<path fill-rule="evenodd" clip-rule="evenodd" d="M64.1289 66.3602C35.6386 66.3602 17.2281 84.7459 17.2281 113.203H111.03C111.03 84.7459 92.6191 66.3602 64.1289 66.3602ZM64.1288 74.3976C60.0661 74.3976 56.7713 79.3669 56.7713 81.262C56.7713 82.1371 57.4737 81.6918 58.6299 80.9589C59.9777 80.1046 61.942 78.8594 64.1288 78.8594C66.3157 78.8594 68.28 80.1046 69.6278 80.9589C70.784 81.6918 71.4864 82.1371 71.4864 81.262C71.4864 79.3669 68.1916 74.3976 64.1288 74.3976ZM53.9553 89.8205C49.9531 90.1094 47.0648 95.2367 47.1996 97.1046C47.2618 97.9658 47.9212 97.4777 49.0067 96.6739C50.2729 95.7364 52.119 94.3695 54.2738 94.214C56.4265 94.0585 58.449 95.1449 59.8371 95.8904C61.0283 96.5303 61.7523 96.9191 61.69 96.0565C61.5551 94.1886 57.9555 89.5297 53.9553 89.8205ZM74.3024 89.8205C78.3046 90.1094 81.1929 95.2367 81.0581 97.1046C80.9958 97.9658 80.3365 97.4777 79.251 96.6739C77.9848 95.7364 76.1387 94.3695 73.9839 94.214C71.8312 94.0585 69.8087 95.1449 68.4206 95.8904C67.2293 96.5303 66.5054 96.9191 66.5677 96.0565C66.7026 94.1886 70.3022 89.5297 74.3024 89.8205ZM33.2526 94.2959C29.4048 95.5978 26.9776 101.26 27.5854 103.055C27.8753 103.912 28.4804 103.24 29.4515 102.162C30.5165 100.979 32.0217 99.3078 34.0343 98.6269C36.1305 97.9177 38.5313 98.564 40.1844 99.009C41.5656 99.3808 42.4247 99.6121 42.1481 98.7948C41.5403 96.9991 37.1004 92.9941 33.2526 94.2959ZM95.0052 94.2959C98.8531 95.5978 101.28 101.26 100.672 103.055C100.383 103.912 99.7775 103.24 98.8063 102.162C97.7413 100.979 96.2361 99.3078 94.2236 98.6269C92.1273 97.9177 89.7265 98.564 88.0734 99.009C86.6922 99.3808 85.8331 99.6121 86.1097 98.7948C86.7175 96.9991 91.1574 92.9941 95.0052 94.2959ZM42.2164 78.3402C46.1502 77.3214 49.2496 81.182 49.7596 83.1454C50.0098 84.1085 49.1778 83.9043 47.8009 83.5664C46.3704 83.2154 44.3518 82.72 42.3474 83.2391C40.3155 83.7654 38.6961 85.3402 37.5348 86.4696C36.4477 87.5268 35.7621 88.1935 35.5155 87.2442C35.0054 85.2807 38.2826 79.359 42.2164 78.3402ZM86.0413 78.3402C82.1075 77.3214 79.0082 81.182 78.4981 83.1454C78.248 84.1085 79.0799 83.9043 80.4569 83.5664C81.8873 83.2154 83.906 82.72 85.9104 83.2391C87.9422 83.7654 89.5617 85.3402 90.723 86.4696C91.8101 87.5268 92.4957 88.1935 92.7423 87.2442C93.2523 85.2807 89.9751 79.359 86.0413 78.3402Z" fill="#FCFCFC"/>
<path d="M0 113.203L128 113.203V117.106H0V113.203Z" fill="#FF5B5A"/>
</svg>
