<svg width="160" height="26" viewBox="0 0 160 26" fill="none" xmlns="http://www.w3.org/2000/svg">
<path d="M13.576 3.116C17.184 2.88133 19.2813 2.74933 19.868 2.72H20C20.6453 2.72 21.3053 3.04267 21.98 3.688C22.596 4.304 22.904 4.86133 22.904 5.36C22.904 5.65333 22.816 6.04933 22.64 6.548C22.4053 7.22266 21.9213 7.67733 21.188 7.912C20.484 8.11733 19.0613 8.27867 16.92 8.396L13.048 8.572L12.872 12.752C12.8427 13.3387 12.828 14.1893 12.828 15.304C12.828 17.6213 13.0187 20.0267 13.4 22.52C13.4587 22.872 13.488 23.1067 13.488 23.224C13.488 23.6347 13.18 24.104 12.564 24.632C11.9187 25.1893 11.3027 25.468 10.716 25.468C10.0707 25.468 9.396 25.116 8.692 24.412C8.19333 23.9133 7.87067 23.4587 7.724 23.048C7.57733 22.608 7.44533 21.6987 7.328 20.32C7.21067 18.736 7.152 17.064 7.152 15.304C7.152 14.3653 7.16667 13.6907 7.196 13.28L7.328 9.232L6.008 9.144C3.83733 9.02667 2.37067 8.77733 1.608 8.396C0.845333 7.98533 0.464 7.31067 0.464 6.372C0.464 5.25733 0.786667 4.45067 1.432 3.952C2.07733 3.45333 3.13333 3.204 4.6 3.204C5.09867 3.204 5.48 3.21867 5.744 3.248C6.06667 3.27733 6.74133 3.292 7.768 3.292C9.968 3.292 11.904 3.23333 13.576 3.116ZM40.5521 6.68C40.0828 6.26933 39.7161 6.064 39.4521 6.064C39.1295 6.064 38.5868 6.504 37.8241 7.384C37.0908 8.23467 36.3575 9.276 35.6241 10.508C34.8615 11.7987 34.4801 12.7227 34.4801 13.28C34.4801 13.544 34.4948 13.7493 34.5241 13.896C34.7295 15.5093 35.5948 16.7413 37.1201 17.592L38.3521 18.296L40.9041 17.68C42.5761 17.2693 43.5148 16.932 43.7201 16.668C44.3361 15.9053 44.6441 14.688 44.6441 13.016C44.6441 12.576 44.6295 12.2533 44.6001 12.048C44.4828 11.1093 44.2628 10.4347 43.9401 10.024C43.6175 9.584 42.4881 8.46933 40.5521 6.68ZM36.1081 1.62C36.8415 1.20933 37.5748 1.004 38.3081 1.004C39.2761 1.004 40.0241 1.29733 40.5521 1.884C41.1095 2.44133 41.8428 2.72 42.7521 2.72C43.6615 2.72 44.3801 2.86667 44.9081 3.16C45.4655 3.45333 46.1841 4.06933 47.0641 5.008C48.0028 6.03466 48.6335 6.88533 48.9561 7.56C49.3081 8.20533 49.5868 9.17333 49.7921 10.464C50.0268 11.9307 50.1441 13.016 50.1441 13.72C50.1441 14.7173 49.9241 15.8173 49.4841 17.02C48.8095 18.8973 47.9735 20.232 46.9761 21.024C45.9788 21.7867 44.2041 22.4907 41.6521 23.136C40.1268 23.5173 39.0561 23.708 38.4401 23.708C37.5015 23.708 36.2255 23.2827 34.6121 22.432C32.8228 21.464 31.4441 20.2173 30.4761 18.692C29.5081 17.1373 29.0241 15.4653 29.0241 13.676C29.0241 12.092 29.4201 10.508 30.2121 8.924C30.8281 7.692 31.7961 6.25467 33.1161 4.612C34.4361 2.96933 35.4335 1.972 36.1081 1.62ZM69.3254 3.116C72.9334 2.88133 75.0307 2.74933 75.6174 2.72H75.7494C76.3947 2.72 77.0547 3.04267 77.7294 3.688C78.3454 4.304 78.6534 4.86133 78.6534 5.36C78.6534 5.65333 78.5654 6.04933 78.3894 6.548C78.1547 7.22266 77.6707 7.67733 76.9374 7.912C76.2334 8.11733 74.8107 8.27867 72.6694 8.396L68.7974 8.572L68.6214 12.752C68.592 13.3387 68.5774 14.1893 68.5774 15.304C68.5774 17.6213 68.768 20.0267 69.1494 22.52C69.208 22.872 69.2374 23.1067 69.2374 23.224C69.2374 23.6347 68.9294 24.104 68.3134 24.632C67.668 25.1893 67.052 25.468 66.4654 25.468C65.82 25.468 65.1454 25.116 64.4414 24.412C63.9427 23.9133 63.62 23.4587 63.4734 23.048C63.3267 22.608 63.1947 21.6987 63.0774 20.32C62.96 18.736 62.9014 17.064 62.9014 15.304C62.9014 14.3653 62.916 13.6907 62.9454 13.28L63.0774 9.232L61.7574 9.144C59.5867 9.02667 58.12 8.77733 57.3574 8.396C56.5947 7.98533 56.2134 7.31067 56.2134 6.372C56.2134 5.25733 56.536 4.45067 57.1814 3.952C57.8267 3.45333 58.8827 3.204 60.3494 3.204C60.848 3.204 61.2294 3.21867 61.4934 3.248C61.816 3.27733 62.4907 3.292 63.5174 3.292C65.7174 3.292 67.6534 3.23333 69.3254 3.116ZM96.3015 6.68C95.8322 6.26933 95.4655 6.064 95.2015 6.064C94.8788 6.064 94.3362 6.504 93.5735 7.384C92.8402 8.23467 92.1068 9.276 91.3735 10.508C90.6108 11.7987 90.2295 12.7227 90.2295 13.28C90.2295 13.544 90.2442 13.7493 90.2735 13.896C90.4788 15.5093 91.3442 16.7413 92.8695 17.592L94.1015 18.296L96.6535 17.68C98.3255 17.2693 99.2642 16.932 99.4695 16.668C100.085 15.9053 100.393 14.688 100.393 13.016C100.393 12.576 100.379 12.2533 100.35 12.048C100.232 11.1093 100.012 10.4347 99.6895 10.024C99.3668 9.584 98.2375 8.46933 96.3015 6.68ZM91.8575 1.62C92.5908 1.20933 93.3242 1.004 94.0575 1.004C95.0255 1.004 95.7735 1.29733 96.3015 1.884C96.8588 2.44133 97.5922 2.72 98.5015 2.72C99.4108 2.72 100.129 2.86667 100.658 3.16C101.215 3.45333 101.933 4.06933 102.813 5.008C103.752 6.03466 104.383 6.88533 104.706 7.56C105.058 8.20533 105.336 9.17333 105.542 10.464C105.776 11.9307 105.894 13.016 105.894 13.72C105.894 14.7173 105.674 15.8173 105.234 17.02C104.559 18.8973 103.723 20.232 102.725 21.024C101.728 21.7867 99.9535 22.4907 97.4015 23.136C95.8762 23.5173 94.8055 23.708 94.1895 23.708C93.2508 23.708 91.9748 23.2827 90.3615 22.432C88.5722 21.464 87.1935 20.2173 86.2255 18.692C85.2575 17.1373 84.7735 15.4653 84.7735 13.676C84.7735 12.092 85.1695 10.508 85.9615 8.924C86.5775 7.692 87.5455 6.25467 88.8655 4.612C90.1855 2.96933 91.1828 1.972 91.8575 1.62ZM122.347 6.592C121.877 6.24 121.276 6.064 120.543 6.064C120.015 6.064 119.751 6.18133 119.751 6.416C119.751 6.62133 119.531 7.032 119.091 7.648C118.592 8.23467 118.343 9.17333 118.343 10.464C118.343 10.8747 118.416 11.08 118.563 11.08C118.739 11.08 119.223 10.86 120.015 10.42C120.836 9.98 121.511 9.56933 122.039 9.188C122.713 8.66 123.051 8.16133 123.051 7.692C123.051 7.252 122.816 6.88533 122.347 6.592ZM117.551 0.739999C118.255 0.505332 118.973 0.387998 119.707 0.387998C121.203 0.387998 122.699 0.769332 124.195 1.532C125.72 2.26533 126.864 3.204 127.627 4.348C128.213 5.19867 128.507 6.38667 128.507 7.912C128.507 9.056 128.301 10.024 127.891 10.816C127.48 11.5787 126.761 12.3853 125.735 13.236L124.327 14.38L125.427 14.908C126.307 15.3773 127.641 16.448 129.431 18.12C131.22 19.7627 132.173 20.8187 132.291 21.288C132.349 21.5227 132.379 21.7133 132.379 21.86C132.379 22.3587 132.261 22.828 132.027 23.268C131.792 23.708 131.484 24.0307 131.103 24.236C130.604 24.5 130.164 24.632 129.783 24.632C128.903 24.632 127.641 23.8693 125.999 22.344C124.415 20.8773 122.64 19.6307 120.675 18.604C119.208 17.8707 118.328 17.504 118.035 17.504C117.712 17.504 117.507 17.7093 117.419 18.12C117.36 18.5307 117.331 19.3667 117.331 20.628V21.244C117.331 22.5053 117.287 23.3267 117.199 23.708C117.111 24.0893 116.847 24.5 116.407 24.94C115.791 25.556 115.16 25.864 114.515 25.864C113.928 25.864 113.371 25.6 112.843 25.072C112.168 24.3973 111.831 23.2093 111.831 21.508C111.831 20.3053 111.992 18.2813 112.315 15.436C112.755 11.8867 113.004 9.144 113.063 7.208C113.121 5.50667 113.209 4.46533 113.327 4.084C113.444 3.644 113.972 3.05733 114.911 2.324C115.849 1.59067 116.729 1.06267 117.551 0.739999ZM150.074 6.68C149.605 6.26933 149.238 6.064 148.974 6.064C148.652 6.064 148.109 6.504 147.346 7.384C146.613 8.23467 145.88 9.276 145.146 10.508C144.384 11.7987 144.002 12.7227 144.002 13.28C144.002 13.544 144.017 13.7493 144.046 13.896C144.252 15.5093 145.117 16.7413 146.642 17.592L147.874 18.296L150.426 17.68C152.098 17.2693 153.037 16.932 153.242 16.668C153.858 15.9053 154.166 14.688 154.166 13.016C154.166 12.576 154.152 12.2533 154.122 12.048C154.005 11.1093 153.785 10.4347 153.462 10.024C153.14 9.584 152.01 8.46933 150.074 6.68ZM145.63 1.62C146.364 1.20933 147.097 1.004 147.83 1.004C148.798 1.004 149.546 1.29733 150.074 1.884C150.632 2.44133 151.365 2.72 152.274 2.72C153.184 2.72 153.902 2.86667 154.43 3.16C154.988 3.45333 155.706 4.06933 156.586 5.008C157.525 6.03466 158.156 6.88533 158.478 7.56C158.83 8.20533 159.109 9.17333 159.314 10.464C159.549 11.9307 159.666 13.016 159.666 13.72C159.666 14.7173 159.446 15.8173 159.006 17.02C158.332 18.8973 157.496 20.232 156.498 21.024C155.501 21.7867 153.726 22.4907 151.174 23.136C149.649 23.5173 148.578 23.708 147.962 23.708C147.024 23.708 145.748 23.2827 144.134 22.432C142.345 21.464 140.966 20.2173 139.998 18.692C139.03 17.1373 138.546 15.4653 138.546 13.676C138.546 12.092 138.942 10.508 139.734 8.924C140.35 7.692 141.318 6.25467 142.638 4.612C143.958 2.96933 144.956 1.972 145.63 1.62Z" fill="#121826"/>
</svg>
