<svg width="372px" height="142px" x="0px" y="0px" viewBox="0 0 372 142" xmlns="http://www.w3.org/2000/svg" version="1.1" style="transform: translate(0,0)"><rect x="0" y="0" width="372" height="142" style="fill:#ffffff;"/><g transform="translate(10, 10)" style="fill:#000000;"><rect x="0" y="0" width="2" height="100"/><rect x="8" y="0" width="2" height="100"/><rect x="12" y="0" width="6" height="100"/><rect x="20" y="0" width="6" height="100"/><rect x="28" y="0" width="2" height="100"/><rect x="32" y="0" width="6" height="100"/><rect x="40" y="0" width="2" height="100"/><rect x="44" y="0" width="6" height="100"/><rect x="56" y="0" width="2" height="100"/><rect x="60" y="0" width="2" height="100"/><rect x="64" y="0" width="6" height="100"/><rect x="72" y="0" width="2" height="100"/><rect x="76" y="0" width="6" height="100"/><rect x="88" y="0" width="2" height="100"/><rect x="92" y="0" width="2" height="100"/><rect x="96" y="0" width="2" height="100"/><rect x="100" y="0" width="2" height="100"/><rect x="108" y="0" width="2" height="100"/><rect x="112" y="0" width="6" height="100"/><rect x="120" y="0" width="6" height="100"/><rect x="128" y="0" width="2" height="100"/><rect x="132" y="0" width="6" height="100"/><rect x="140" y="0" width="2" height="100"/><rect x="148" y="0" width="2" height="100"/><rect x="152" y="0" width="6" height="100"/><rect x="160" y="0" width="2" height="100"/><rect x="164" y="0" width="2" height="100"/><rect x="172" y="0" width="6" height="100"/><rect x="180" y="0" width="2" height="100"/><rect x="184" y="0" width="6" height="100"/><rect x="192" y="0" width="2" height="100"/><rect x="196" y="0" width="2" height="100"/><rect x="200" y="0" width="6" height="100"/><rect x="212" y="0" width="2" height="100"/><rect x="216" y="0" width="6" height="100"/><rect x="224" y="0" width="2" height="100"/><rect x="228" y="0" width="6" height="100"/><rect x="236" y="0" width="2" height="100"/><rect x="244" y="0" width="2" height="100"/><rect x="248" y="0" width="6" height="100"/><rect x="256" y="0" width="6" height="100"/><rect x="264" y="0" width="2" height="100"/><rect x="272" y="0" width="6" height="100"/><rect x="280" y="0" width="2" height="100"/><rect x="284" y="0" width="2" height="100"/><rect x="288" y="0" width="6" height="100"/><rect x="296" y="0" width="6" height="100"/><rect x="308" y="0" width="2" height="100"/><rect x="312" y="0" width="2" height="100"/><rect x="316" y="0" width="2" height="100"/><rect x="320" y="0" width="2" height="100"/><rect x="328" y="0" width="2" height="100"/><rect x="332" y="0" width="6" height="100"/><rect x="340" y="0" width="6" height="100"/><rect x="348" y="0" width="2" height="100"/><text style="font: 20px monospace" text-anchor="middle" x="176" y="122">EE7B4DB53</text></g></svg>