<svg width="157" height="27" viewBox="0 0 157 27" fill="none" xmlns="http://www.w3.org/2000/svg">
<path d="M13.93 3.505C17.62 3.265 19.765 3.13 20.365 3.1H20.5C21.16 3.1 21.835 3.43 22.525 4.09C23.155 4.72 23.47 5.29 23.47 5.8C23.47 6.1 23.38 6.505 23.2 7.015C22.96 7.705 22.465 8.17 21.715 8.41C20.995 8.62 19.54 8.785 17.35 8.905L13.39 9.085L13.21 13.36C13.18 13.96 13.165 14.83 13.165 15.97C13.165 18.34 13.36 20.8 13.75 23.35C13.81 23.71 13.84 23.95 13.84 24.07C13.84 24.49 13.525 24.97 12.895 25.51C12.235 26.08 11.605 26.365 11.005 26.365C10.345 26.365 9.655 26.005 8.935 25.285C8.425 24.775 8.095 24.31 7.945 23.89C7.795 23.44 7.66 22.51 7.54 21.1C7.42 19.48 7.36 17.77 7.36 15.97C7.36 15.01 7.375 14.32 7.405 13.9L7.54 9.76L6.19 9.67C3.97 9.55 2.47 9.295 1.69 8.905C0.91 8.485 0.52 7.795 0.52 6.835C0.52 5.695 0.85 4.87 1.51 4.36C2.17 3.85 3.25 3.595 4.75 3.595C5.26 3.595 5.65 3.61 5.92 3.64C6.25 3.67 6.94 3.685 7.99 3.685C10.24 3.685 12.22 3.625 13.93 3.505ZM40.1692 7.15C39.6892 6.73 39.3142 6.52 39.0442 6.52C38.7142 6.52 38.1592 6.97 37.3792 7.87C36.6292 8.74 35.8792 9.805 35.1292 11.065C34.3492 12.385 33.9592 13.33 33.9592 13.9C33.9592 14.17 33.9742 14.38 34.0042 14.53C34.2142 16.18 35.0992 17.44 36.6592 18.31L37.9192 19.03L40.5292 18.4C42.2392 17.98 43.1992 17.635 43.4092 17.365C44.0392 16.585 44.3542 15.34 44.3542 13.63C44.3542 13.18 44.3392 12.85 44.3092 12.64C44.1892 11.68 43.9642 10.99 43.6342 10.57C43.3042 10.12 42.1492 8.98 40.1692 7.15ZM35.6242 1.975C36.3742 1.555 37.1242 1.345 37.8742 1.345C38.8642 1.345 39.6292 1.645 40.1692 2.245C40.7392 2.815 41.4892 3.1 42.4192 3.1C43.3492 3.1 44.0842 3.25 44.6242 3.55C45.1942 3.85 45.9292 4.48 46.8292 5.44C47.7892 6.49 48.4342 7.36 48.7642 8.05C49.1242 8.71 49.4092 9.7 49.6192 11.02C49.8592 12.52 49.9792 13.63 49.9792 14.35C49.9792 15.37 49.7542 16.495 49.3042 17.725C48.6142 19.645 47.7592 21.01 46.7392 21.82C45.7192 22.6 43.9042 23.32 41.2942 23.98C39.7342 24.37 38.6392 24.565 38.0092 24.565C37.0492 24.565 35.7442 24.13 34.0942 23.26C32.2642 22.27 30.8542 20.995 29.8642 19.435C28.8742 17.845 28.3792 16.135 28.3792 14.305C28.3792 12.685 28.7842 11.065 29.5942 9.445C30.2242 8.185 31.2142 6.715 32.5642 5.035C33.9142 3.355 34.9342 2.335 35.6242 1.975ZM68.2464 3.505C71.9364 3.265 74.0814 3.13 74.6814 3.1H74.8164C75.4764 3.1 76.1514 3.43 76.8414 4.09C77.4714 4.72 77.7864 5.29 77.7864 5.8C77.7864 6.1 77.6964 6.505 77.5164 7.015C77.2764 7.705 76.7814 8.17 76.0314 8.41C75.3114 8.62 73.8564 8.785 71.6664 8.905L67.7064 9.085L67.5264 13.36C67.4964 13.96 67.4814 14.83 67.4814 15.97C67.4814 18.34 67.6764 20.8 68.0664 23.35C68.1264 23.71 68.1564 23.95 68.1564 24.07C68.1564 24.49 67.8414 24.97 67.2114 25.51C66.5514 26.08 65.9214 26.365 65.3214 26.365C64.6614 26.365 63.9714 26.005 63.2514 25.285C62.7414 24.775 62.4114 24.31 62.2614 23.89C62.1114 23.44 61.9764 22.51 61.8564 21.1C61.7364 19.48 61.6764 17.77 61.6764 15.97C61.6764 15.01 61.6914 14.32 61.7214 13.9L61.8564 9.76L60.5064 9.67C58.2864 9.55 56.7864 9.295 56.0064 8.905C55.2264 8.485 54.8364 7.795 54.8364 6.835C54.8364 5.695 55.1664 4.87 55.8264 4.36C56.4864 3.85 57.5664 3.595 59.0664 3.595C59.5764 3.595 59.9664 3.61 60.2364 3.64C60.5664 3.67 61.2564 3.685 62.3064 3.685C64.5564 3.685 66.5364 3.625 68.2464 3.505ZM94.4856 7.15C94.0056 6.73 93.6306 6.52 93.3606 6.52C93.0306 6.52 92.4756 6.97 91.6956 7.87C90.9456 8.74 90.1956 9.805 89.4456 11.065C88.6656 12.385 88.2756 13.33 88.2756 13.9C88.2756 14.17 88.2906 14.38 88.3206 14.53C88.5306 16.18 89.4156 17.44 90.9756 18.31L92.2356 19.03L94.8456 18.4C96.5556 17.98 97.5156 17.635 97.7256 17.365C98.3556 16.585 98.6706 15.34 98.6706 13.63C98.6706 13.18 98.6556 12.85 98.6256 12.64C98.5056 11.68 98.2806 10.99 97.9506 10.57C97.6206 10.12 96.4656 8.98 94.4856 7.15ZM89.9406 1.975C90.6906 1.555 91.4406 1.345 92.1906 1.345C93.1806 1.345 93.9456 1.645 94.4856 2.245C95.0556 2.815 95.8056 3.1 96.7356 3.1C97.6656 3.1 98.4006 3.25 98.9406 3.55C99.5106 3.85 100.246 4.48 101.146 5.44C102.106 6.49 102.751 7.36 103.081 8.05C103.441 8.71 103.726 9.7 103.936 11.02C104.176 12.52 104.296 13.63 104.296 14.35C104.296 15.37 104.071 16.495 103.621 17.725C102.931 19.645 102.076 21.01 101.056 21.82C100.036 22.6 98.2206 23.32 95.6106 23.98C94.0506 24.37 92.9556 24.565 92.3256 24.565C91.3656 24.565 90.0606 24.13 88.4106 23.26C86.5806 22.27 85.1706 20.995 84.1806 19.435C83.1906 17.845 82.6956 16.135 82.6956 14.305C82.6956 12.685 83.1006 11.065 83.9106 9.445C84.5406 8.185 85.5306 6.715 86.8806 5.035C88.2306 3.355 89.2506 2.335 89.9406 1.975ZM119.773 7.06C119.293 6.7 118.678 6.52 117.928 6.52C117.388 6.52 117.118 6.64 117.118 6.88C117.118 7.09 116.893 7.51 116.443 8.14C115.933 8.74 115.678 9.7 115.678 11.02C115.678 11.44 115.753 11.65 115.903 11.65C116.083 11.65 116.578 11.425 117.388 10.975C118.228 10.525 118.918 10.105 119.458 9.715C120.148 9.175 120.493 8.665 120.493 8.185C120.493 7.735 120.253 7.36 119.773 7.06ZM114.868 1.075C115.588 0.834999 116.323 0.714998 117.073 0.714998C118.603 0.714998 120.133 1.105 121.663 1.885C123.223 2.635 124.393 3.595 125.173 4.765C125.773 5.635 126.073 6.85 126.073 8.41C126.073 9.58 125.863 10.57 125.443 11.38C125.023 12.16 124.288 12.985 123.238 13.855L121.798 15.025L122.923 15.565C123.823 16.045 125.188 17.14 127.018 18.85C128.848 20.53 129.823 21.61 129.943 22.09C130.003 22.33 130.033 22.525 130.033 22.675C130.033 23.185 129.913 23.665 129.673 24.115C129.433 24.565 129.118 24.895 128.728 25.105C128.218 25.375 127.768 25.51 127.378 25.51C126.478 25.51 125.188 24.73 123.508 23.17C121.888 21.67 120.073 20.395 118.063 19.345C116.563 18.595 115.663 18.22 115.363 18.22C115.033 18.22 114.823 18.43 114.733 18.85C114.673 19.27 114.643 20.125 114.643 21.415V22.045C114.643 23.335 114.598 24.175 114.508 24.565C114.418 24.955 114.148 25.375 113.698 25.825C113.068 26.455 112.423 26.77 111.763 26.77C111.163 26.77 110.593 26.5 110.053 25.96C109.363 25.27 109.018 24.055 109.018 22.315C109.018 21.085 109.183 19.015 109.513 16.105C109.963 12.475 110.218 9.67 110.278 7.69C110.338 5.95 110.428 4.885 110.548 4.495C110.668 4.045 111.208 3.445 112.168 2.695C113.128 1.945 114.028 1.405 114.868 1.075ZM146.781 7.15C146.301 6.73 145.926 6.52 145.656 6.52C145.326 6.52 144.771 6.97 143.991 7.87C143.241 8.74 142.491 9.805 141.741 11.065C140.961 12.385 140.571 13.33 140.571 13.9C140.571 14.17 140.586 14.38 140.616 14.53C140.826 16.18 141.711 17.44 143.271 18.31L144.531 19.03L147.141 18.4C148.851 17.98 149.811 17.635 150.021 17.365C150.651 16.585 150.966 15.34 150.966 13.63C150.966 13.18 150.951 12.85 150.921 12.64C150.801 11.68 150.576 10.99 150.246 10.57C149.916 10.12 148.761 8.98 146.781 7.15ZM142.236 1.975C142.986 1.555 143.736 1.345 144.486 1.345C145.476 1.345 146.241 1.645 146.781 2.245C147.351 2.815 148.101 3.1 149.031 3.1C149.961 3.1 150.696 3.25 151.236 3.55C151.806 3.85 152.541 4.48 153.441 5.44C154.401 6.49 155.046 7.36 155.376 8.05C155.736 8.71 156.021 9.7 156.231 11.02C156.471 12.52 156.591 13.63 156.591 14.35C156.591 15.37 156.366 16.495 155.916 17.725C155.226 19.645 154.371 21.01 153.351 21.82C152.331 22.6 150.516 23.32 147.906 23.98C146.346 24.37 145.251 24.565 144.621 24.565C143.661 24.565 142.356 24.13 140.706 23.26C138.876 22.27 137.466 20.995 136.476 19.435C135.486 17.845 134.991 16.135 134.991 14.305C134.991 12.685 135.396 11.065 136.206 9.445C136.836 8.185 137.826 6.715 139.176 5.035C140.526 3.355 141.546 2.335 142.236 1.975Z" fill="#FF5B5A"/>
</svg>
