<svg width="137" height="42" viewBox="0 0 137 42" fill="none" xmlns="http://www.w3.org/2000/svg">
<path d="M5.192 31V0.596008H12.848V31H5.192ZM0.44 15.864V9.48401H17.6V15.864H0.44Z" fill="#121826"/>
<path d="M31.8711 31.484C29.5538 31.484 27.4858 31 25.6671 30.032C23.8778 29.0347 22.4551 27.6853 21.3991 25.984C20.3431 24.2533 19.8151 22.3173 19.8151 20.176C19.8151 18.0347 20.3285 16.128 21.3551 14.456C22.4111 12.7547 23.8485 11.42 25.6671 10.452C27.4858 9.45468 29.5391 8.95601 31.8271 8.95601C34.1151 8.95601 36.1538 9.45468 37.9431 10.452C39.7618 11.42 41.1991 12.7547 42.2551 14.456C43.3111 16.128 43.8391 18.0347 43.8391 20.176C43.8391 22.3173 43.3111 24.2533 42.2551 25.984C41.2285 27.6853 39.8058 29.0347 37.9871 30.032C36.1978 31 34.1591 31.484 31.8711 31.484ZM31.8271 24.664C32.6778 24.664 33.4111 24.488 34.0271 24.136C34.6725 23.7547 35.1711 23.2267 35.5231 22.552C35.8751 21.8773 36.0511 21.1 36.0511 20.22C36.0511 19.34 35.8605 18.5773 35.4791 17.932C35.1271 17.2573 34.6431 16.744 34.0271 16.392C33.4111 16.0107 32.6778 15.82 31.8271 15.82C31.0058 15.82 30.2725 16.0107 29.6271 16.392C28.9818 16.7733 28.4831 17.3013 28.1311 17.976C27.7791 18.6213 27.6031 19.384 27.6031 20.264C27.6031 21.1147 27.7791 21.8773 28.1311 22.552C28.4831 23.2267 28.9818 23.7547 29.6271 24.136C30.2725 24.488 31.0058 24.664 31.8271 24.664Z" fill="#121826"/>
<path d="M50.8008 31V0.596008H58.4567V31H50.8008ZM46.0487 15.864V9.48401H63.2087V15.864H46.0487Z" fill="#121826"/>
<path d="M77.4799 31.484C75.1625 31.484 73.0945 31 71.2759 30.032C69.4865 29.0347 68.0639 27.6853 67.0079 25.984C65.9519 24.2533 65.4239 22.3173 65.4239 20.176C65.4239 18.0347 65.9372 16.128 66.9639 14.456C68.0199 12.7547 69.4572 11.42 71.2759 10.452C73.0945 9.45468 75.1479 8.95601 77.4359 8.95601C79.7239 8.95601 81.7625 9.45468 83.5519 10.452C85.3705 11.42 86.8079 12.7547 87.8639 14.456C88.9199 16.128 89.4479 18.0347 89.4479 20.176C89.4479 22.3173 88.9199 24.2533 87.8639 25.984C86.8372 27.6853 85.4145 29.0347 83.5959 30.032C81.8065 31 79.7679 31.484 77.4799 31.484ZM77.4359 24.664C78.2865 24.664 79.0199 24.488 79.6359 24.136C80.2812 23.7547 80.7799 23.2267 81.1319 22.552C81.4839 21.8773 81.6599 21.1 81.6599 20.22C81.6599 19.34 81.4692 18.5773 81.0879 17.932C80.7359 17.2573 80.2519 16.744 79.6359 16.392C79.0199 16.0107 78.2865 15.82 77.4359 15.82C76.6145 15.82 75.8812 16.0107 75.2359 16.392C74.5905 16.7733 74.0919 17.3013 73.7399 17.976C73.3879 18.6213 73.2119 19.384 73.2119 20.264C73.2119 21.1147 73.3879 21.8773 73.7399 22.552C74.0919 23.2267 74.5905 23.7547 75.2359 24.136C75.8812 24.488 76.6145 24.664 77.4359 24.664Z" fill="#121826"/>
<path d="M93.8053 31V9.48401H101.461V31H93.8053ZM101.461 19.296L98.0293 16.392C98.8799 13.9573 100.009 12.124 101.417 10.892C102.825 9.66001 104.659 9.04401 106.917 9.04401C107.944 9.04401 108.824 9.17601 109.557 9.44001C110.32 9.70401 110.965 10.1147 111.493 10.672L107.049 16.612C106.815 16.348 106.477 16.1427 106.037 15.996C105.627 15.82 105.157 15.732 104.629 15.732C103.632 15.732 102.855 16.04 102.297 16.656C101.74 17.2427 101.461 18.1227 101.461 19.296Z" fill="#121826"/>
<path d="M124.335 31.484C122.017 31.484 119.949 31 118.131 30.032C116.341 29.0347 114.919 27.6853 113.863 25.984C112.807 24.2533 112.279 22.3173 112.279 20.176C112.279 18.0347 112.792 16.128 113.819 14.456C114.875 12.7547 116.312 11.42 118.131 10.452C119.949 9.45468 122.003 8.95601 124.291 8.95601C126.579 8.95601 128.617 9.45468 130.407 10.452C132.225 11.42 133.663 12.7547 134.719 14.456C135.775 16.128 136.303 18.0347 136.303 20.176C136.303 22.3173 135.775 24.2533 134.719 25.984C133.692 27.6853 132.269 29.0347 130.451 30.032C128.661 31 126.623 31.484 124.335 31.484ZM124.291 24.664C125.141 24.664 125.875 24.488 126.491 24.136C127.136 23.7547 127.635 23.2267 127.987 22.552C128.339 21.8773 128.515 21.1 128.515 20.22C128.515 19.34 128.324 18.5773 127.943 17.932C127.591 17.2573 127.107 16.744 126.491 16.392C125.875 16.0107 125.141 15.82 124.291 15.82C123.469 15.82 122.736 16.0107 122.091 16.392C121.445 16.7733 120.947 17.3013 120.595 17.976C120.243 18.6213 120.067 19.384 120.067 20.264C120.067 21.1147 120.243 21.8773 120.595 22.552C120.947 23.2267 121.445 23.7547 122.091 24.136C122.736 24.488 123.469 24.664 124.291 24.664Z" fill="#121826"/>
<path d="M0 38H64V42H0V38Z" fill="#121826"/>
</svg>
